PathFileType	4	(X/Y/Z)	/Users/itak/Documents/Research/Walk-IL/dataset/trc/00164_00008.trc
DataRate	CameraRate	NumFrames	NumMarkers	Units	OrigDataRate	OrigDataStartFrame	OrigNumFrames
100.000000	100.000000	4	53	mm	100.000000	304	608
Frame#	Time	RPSI			LPSI			L3			STRN			T10			C7			CLAV			RBAK			LBAK			LSHO			LUPA			LAEL			LAOL			LWTS			LWPS			LFRA			LIFD			LHPS			LHTS			RSHO			RUPA			RAEL			RAOL			RWTS			RWPS			RFRA			RIFD			RHTS			RHPS			RBHD			LFHD			RFHD			LBHD			LHIP			RHIP			RASI			LASI			LKNE			LTHI			LANK			LTIP			LTOE			LMT1			LMT5			LHEE			RKNE			RTHI			RANK			RTIP			RTOE			RMT1			RMT5			RHEE			
		X1	Y1	Z1	X2	Y2	Z2	X3	Y3	Z3	X4	Y4	Z4	X5	Y5	Z5	X6	Y6	Z6	X7	Y7	Z7	X8	Y8	Z8	X9	Y9	Z9	X10	Y10	Z10	X11	Y11	Z11	X12	Y12	Z12	X13	Y13	Z13	X14	Y14	Z14	X15	Y15	Z15	X16	Y16	Z16	X17	Y17	Z17	X18	Y18	Z18	X19	Y19	Z19	X20	Y20	Z20	X21	Y21	Z21	X22	Y22	Z22	X23	Y23	Z23	X24	Y24	Z24	X25	Y25	Z25	X26	Y26	Z26	X27	Y27	Z27	X28	Y28	Z28	X29	Y29	Z29	X30	Y30	Z30	X31	Y31	Z31	X32	Y32	Z32	X33	Y33	Z33	X34	Y34	Z34	X35	Y35	Z35	X36	Y36	Z36	X37	Y37	Z37	X38	Y38	Z38	X39	Y39	Z39	X40	Y40	Z40	X41	Y41	Z41	X42	Y42	Z42	X43	Y43	Z43	X44	Y44	Z44	X45	Y45	Z45	X46	Y46	Z46	X47	Y47	Z47	X48	Y48	Z48	X49	Y49	Z49	X50	Y50	Z50	X51	Y51	Z51	X52	Y52	Z52	X53	Y53	Z53	

305	3.04	-841.5490112304688	1049.583129882812	43.49229431152344	-840.3731689453125	1049.844604492188	-79.83997344970703	-840.2237548828125	1088.984497070312	-17.26372337341309	-576.3508911132812	1294.507934570312	-12.35755443572998	-871.1907348632812	1247.413330078125	-26.08325576782227	-800.6146850585938	1516.342651367188	-25.86306953430176	-603.0595092773438	1408.987915039062	-17.98114395141602	-873.8895263671875	1337.821044921875	72.17134094238281	-803.0491943359375	1495.14599609375	-127.7886581420898	-723.8663940429688	1484.346313476562	-204.2364654541016	-757.4616088867188	1352.9189453125	-280.0823059082031	-754.5916748046875	1136.823120117188	-290.5315551757812	-794.3211059570312	1123.71240234375	-212.0219421386719	-682.4389038085938	888.523193359375	-275.3903198242188	-768.5894165039062	886.3777465820312	-309.3064575195312	-758.1509399414062	1028.417358398438	-307.5840454101562	-708.1522216796875	701.9639892578125	-254.4121704101562	-762.4678955078125	813.7489013671875	-308.1264343261719	-690.1494750976562	808.5733032226562	-295.7890930175781	-747.3099365234375	1486.424560546875	156.0099334716797	-773.7982788085938	1419.13671875	221.03271484375	-813.196533203125	1135.04931640625	268.6772155761719	-804.3792724609375	1125.501342773438	169.5284423828125	-691.1324462890625	899.4779663085938	275.9474792480469	-771.743896484375	889.3560791015625	311.2904968261719	-796.6282958984375	1062.684448242188	291.3009643554688	-686.5563354492188	708.5335083007812	261.67431640625	-673.5153198242188	804.4802856445312	290.070556640625	-750.8479614257812	804.3252563476562	314.3146362304688	-749.7904663085938	1673.025024414062	63.56798934936523	-593.789306640625	1731.120971679688	-75.59805297851562	-584.449462890625	1725.0078125	53.75473785400391	-767.2993774414062	1686.67138671875	-73.02346038818359	-744.5299682617188	984.1749267578125	-199.5983123779297	-686.677978515625	1011.491516113281	165.6562347412109	-607.5927734375	1037.798461914062	108.4617767333984	-617.493896484375	1026.214111328125	-150.0723571777344	-709.5847778320312	482.6183471679688	-206.6892395019531	-705.4863891601562	630.6973876953125	-213.9847106933594	-1106.348388671875	213.9221038818359	-153.4949645996094	-896.8347778320312	339.1244201660156	-196.8389892578125	-973.3456420898438	48.61453628540039	-149.2049560546875	-994.9901123046875	83.49876403808594	-99.66286468505859	-1059.925537109375	121.028938293457	-197.98388671875	-1117.5009765625	257.6905212402344	-81.80354309082031	-556.951904296875	523.8933715820312	114.4738998413086	-590.8125	792.3799438476562	165.9660339355469	-601.727294921875	31.96790313720703	78.61500549316406	-532.8829956054688	402.7618713378906	92.655029296875	-384.3455810546875	54.83578491210938	57.85813903808594	-434.2792358398438	51.64368438720703	7.161725044250488	-493.8055725097656	34.11635208129883	116.227424621582	-649.3057250976562	37.0633544921875	6.848836421966553	
306	3.05	-832.3580322265625	1050.919677734375	45.45970916748047	-831.1849975585938	1050.831787109375	-77.78957366943359	-830.983154296875	1090.300048828125	-15.25040626525879	-567.0882568359375	1295.453979492188	-11.36556243896484	-861.9236450195312	1249.044189453125	-23.89879035949707	-790.9027709960938	1517.867309570312	-24.06135368347168	-593.6597900390625	1409.989379882812	-16.91220092773438	-864.2407836914062	1339.490844726562	74.37459564208984	-793.6992797851562	1496.609008789062	-125.9720077514648	-714.8095703125	1485.560302734375	-202.7519226074219	-749.1497192382812	1354.196411132812	-278.3996276855469	-747.4049072265625	1138.095336914062	-288.7286376953125	-787.1996459960938	1125.341064453125	-210.1687469482422	-677.7297973632812	888.9953002929688	-272.8666687011719	-763.6724243164062	887.9400024414062	-307.6091613769531	-751.8442993164062	1029.782958984375	-305.7022094726562	-707.029541015625	702.734375	-250.7994995117188	-758.65576171875	815.1981811523438	-306.0042419433594	-686.6802978515625	808.8360595703125	-292.4478759765625	-736.9550170898438	1487.792236328125	157.6278533935547	-763.2298583984375	1420.60888671875	222.8813781738281	-802.4375	1136.58447265625	272.0591430664062	-794.47607421875	1126.759521484375	172.9153900146484	-678.5977783203125	901.906494140625	278.59619140625	-758.8704223632812	891.0845336914062	314.6250305175781	-785.2633666992188	1064.23974609375	294.7129211425781	-672.2311401367188	711.0741577148438	264.7236022949219	-659.991455078125	807.2069091796875	292.8399353027344	-737.1109008789062	806.2788696289062	317.6385803222656	-740.280029296875	1674.103881835938	65.27686309814453	-584.2911376953125	1732.695678710938	-73.69773864746094	-575.0185546875	1726.3056640625	55.65226364135742	-757.71533203125	1687.998046875	-71.28322601318359	-735.715087890625	984.9021606445312	-197.7108001708984	-677.3809204101562	1012.852661132812	167.2664489746094	-598.2198486328125	1038.960571289062	109.9999008178711	-608.4137573242188	1027.612915039062	-148.6546478271484	-689.1531982421875	483.6650390625	-206.8440246582031	-688.8883056640625	631.8728637695312	-213.4518432617188	-1088.33203125	219.8451232910156	-151.7970123291016	-877.4490356445312	342.2336730957031	-195.99072265625	-955.569091796875	52.87276458740234	-151.6051788330078	-976.9757080078125	87.74874877929688	-101.0341033935547	-1042.315185546875	127.8311080932617	-198.3429260253906	-1099.047119140625	262.3606262207031	-79.31423187255859	-552.9425048828125	523.6373901367188	115.8862609863281	-583.3896484375	792.7435913085938	167.4271392822266	-601.8682250976562	31.75817108154297	78.77732849121094	-530.160888671875	402.3124084472656	93.91256713867188	-384.61962890625	55.0128173828125	58.28188705444336	-434.4507446289062	51.9372673034668	7.471905708312988	-493.8627624511719	33.79329681396484	116.5517578125	-649.487548828125	37.43821716308594	7.228181838989258	
307	3.06	-823.36962890625	1052.153564453125	47.26715850830078	-822.109619140625	1051.823364257812	-75.90561676025391	-821.93408203125	1091.552001953125	-13.37377834320068	-557.991455078125	1296.335327148438	-10.42895793914795	-852.8209838867188	1250.625854492188	-21.80196952819824	-781.327880859375	1519.325439453125	-22.30745697021484	-584.4140014648438	1410.936645507812	-15.92396450042725	-854.73876953125	1341.130615234375	76.52669525146484	-784.5183715820312	1498.00048828125	-124.1986389160156	-705.9505004882812	1486.684448242188	-201.3175354003906	-741.0440673828125	1355.411865234375	-276.7831115722656	-740.3560791015625	1139.288818359375	-287.1246948242188	-780.2547607421875	1126.852172851562	-208.5654449462891	-672.5776977539062	889.5703735351562	-270.3917236328125	-758.2149047851562	889.349365234375	-306.1184997558594	-745.4168701171875	1031.014892578125	-304.0232543945312	-704.8036499023438	703.6251220703125	-247.3553466796875	-754.0645751953125	816.503662109375	-304.066650390625	-682.4533081054688	809.2282104492188	-289.2109069824219	-726.70849609375	1489.11962890625	159.1922149658203	-752.7301635742188	1422.033081054688	224.6900634765625	-791.5847778320312	1138.053955078125	275.3816223144531	-784.498291015625	1127.948486328125	176.2542572021484	-665.9085083007812	904.3374633789062	281.2186279296875	-745.847412109375	892.7946166992188	317.909423828125	-773.7786865234375	1065.75146484375	298.05859375	-657.6333618164062	713.6381225585938	267.7702026367188	-646.2915649414062	809.9434814453125	295.5921630859375	-723.2008666992188	808.225341796875	320.9164123535156	-730.8140258789062	1675.149780273438	66.88573455810547	-574.8457641601562	1734.140991210938	-71.94330596923828	-565.61328125	1727.511962890625	57.39826965332031	-748.2027587890625	1689.265625	-69.64117431640625	-726.9072265625	985.7418212890625	-195.9619903564453	-668.3373413085938	1014.110107421875	168.8558807373047	-589.1234130859375	1040.129760742188	111.5867080688477	-599.416015625	1029.028076171875	-147.1873168945312	-668.85791015625	485.0361633300781	-206.8521881103516	-672.3331298828125	633.2674560546875	-212.8461456298828	-1069.446166992188	224.4325866699219	-150.2523193359375	-857.8085327148438	345.0716857910156	-195.1125640869141	-936.2290649414062	57.09556198120117	-153.5477752685547	-957.5562744140625	91.48473358154297	-102.1030960083008	-1023.303527832031	133.4597930908203	-198.6023406982422	-1080.035888671875	265.774169921875	-77.06369018554688	-549.2142944335938	523.3695678710938	117.2397079467773	-576.1826782226562	793.0494384765625	168.8484497070312	-602.0250854492188	31.54724884033203	78.92757415771484	-527.68505859375	401.8794860839844	95.12302398681641	-384.9285278320312	55.34170913696289	58.76713562011719	-434.6236267089844	52.30936050415039	7.832388877868652	-493.9482116699219	33.47729873657227	116.8829040527344	-649.6785278320312	37.79643630981445	7.586905479431152	
308	3.07	-814.5524291992188	1053.29052734375	48.90485000610352	-813.1385498046875	1052.822875976562	-74.19594573974609	-813.0492553710938	1092.74072265625	-11.63722610473633	-549.0454711914062	1297.196655273438	-9.518841743469238	-843.863037109375	1252.14697265625	-19.79998588562012	-771.9052124023438	1520.715454101562	-20.60396957397461	-575.3104858398438	1411.869018554688	-14.9997615814209	-845.3773803710938	1342.727661132812	78.61492919921875	-775.516357421875	1499.323364257812	-122.4702224731445	-697.293212890625	1487.743530273438	-199.9260711669922	-733.1435546875	1356.590087890625	-275.2308349609375	-733.4483642578125	1140.432495117188	-285.6918640136719	-773.4515991210938	1128.274047851562	-207.1615905761719	-666.990966796875	890.2638549804688	-267.9989624023438	-752.257568359375	890.6188354492188	-304.7889099121094	-738.8902587890625	1032.1416015625	-302.5153198242188	-701.4329223632812	704.6154174804688	-244.1466674804688	-748.7334594726562	817.6748657226562	-302.29052734375	-677.4869384765625	809.7548217773438	-286.1613464355469	-716.6126708984375	1490.427368164062	160.6981048583984	-742.3403930664062	1423.432861328125	226.4493560791016	-780.6299438476562	1139.481323242188	278.6170043945312	-774.420654296875	1129.094848632812	179.5168151855469	-653.085205078125	906.7783203125	283.8043212890625	-732.6927490234375	894.5154418945312	321.1353149414062	-762.1715698242188	1067.247802734375	301.3157043457031	-642.8582153320312	716.2305297851562	270.7909851074219	-632.4566650390625	812.6879272460938	298.3106994628906	-709.1644897460938	810.1874389648438	324.1398620605469	-721.38916015625	1676.179565429688	68.39688110351562	-565.443115234375	1735.451904296875	-70.33695220947266	-556.2227172851562	1728.619262695312	58.99036407470703	-738.7639770507812	1690.501831054688	-68.09632110595703	-718.044921875	986.7056884765625	-194.3587646484375	-659.5385131835938	1015.25830078125	170.444091796875	-580.28369140625	1041.316650390625	113.2665328979492	-590.4775390625	1030.470703125	-145.6192321777344	-648.7640380859375	486.7038269042969	-206.7028350830078	-655.8610229492188	634.8554077148438	-212.1802215576172	-1049.767822265625	227.6144561767578	-148.8870391845703	-837.9650268554688	347.5640258789062	-194.2199401855469	-915.4035034179688	61.00388717651367	-154.9371490478516	-936.8277587890625	94.61206817626953	-102.8152847290039	-1003.015747070312	137.7831268310547	-198.7156372070312	-1060.531982421875	267.9189147949219	-75.11573791503906	-545.7731323242188	523.0993041992188	118.5405578613281	-569.1776123046875	793.2967529296875	170.2445220947266	-602.1986694335938	31.33437347412109	79.06027221679688	-525.4569702148438	401.46875	96.29784393310547	-385.2597045898438	55.79563140869141	59.30350494384766	-434.7919921875	52.76877975463867	8.2347412109375	-494.0596923828125	33.17139053344727	117.2126312255859	-649.8612670898438	38.09979248046875	7.884942054748535	
